<?xml version="1.0" encoding="UTF-8" standalone="no"?>
<!-- Created with Inkscape (http://www.inkscape.org/) -->

<svg
   xmlns:dc="http://purl.org/dc/elements/1.1/"
   xmlns:cc="http://creativecommons.org/ns#"
   xmlns:rdf="http://www.w3.org/1999/02/22-rdf-syntax-ns#"
   xmlns:svg="http://www.w3.org/2000/svg"
   xmlns="http://www.w3.org/2000/svg"
   xmlns:sodipodi="http://sodipodi.sourceforge.net/DTD/sodipodi-0.dtd"
   xmlns:inkscape="http://www.inkscape.org/namespaces/inkscape"
   width="86.12561mm"
   height="23.65476mm"
   viewBox="0 0 86.12561 23.65476"
   version="1.1"
   id="svg8"
   inkscape:version="0.92.3 (2405546, 2018-03-11)"
   sodipodi:docname="logo.svg">
  <title
     id="title7573">UseGalaxy.eu Training Infrastructure as a Service Logo</title>
  <defs
     id="defs2" />
  <sodipodi:namedview
     id="base"
     pagecolor="#ffffff"
     bordercolor="#666666"
     borderopacity="1.0"
     inkscape:pageopacity="0.0"
     inkscape:pageshadow="2"
     inkscape:zoom="1.979899"
     inkscape:cx="129.54357"
     inkscape:cy="-31.630482"
     inkscape:document-units="mm"
     inkscape:current-layer="layer1"
     showgrid="false"
     showguides="true"
     inkscape:guide-bbox="true"
     inkscape:window-width="1916"
     inkscape:window-height="1076"
     inkscape:window-x="0"
     inkscape:window-y="0"
     inkscape:window-maximized="1"
     fit-margin-top="2"
     fit-margin-left="2"
     fit-margin-right="2"
     fit-margin-bottom="2" />
  <metadata
     id="metadata5">
    <rdf:RDF>
      <cc:Work
         rdf:about="">
        <dc:format>image/svg+xml</dc:format>
        <dc:type
           rdf:resource="http://purl.org/dc/dcmitype/StillImage" />
        <dc:title>UseGalaxy.eu Training Infrastructure as a Service Logo</dc:title>
        <dc:creator>
          <cc:Agent>
            <dc:title>Helena Rasche</dc:title>
          </cc:Agent>
        </dc:creator>
        <dc:rights>
          <cc:Agent>
            <dc:title>cc-by-nc-sa</dc:title>
          </cc:Agent>
        </dc:rights>
      </cc:Work>
    </rdf:RDF>
  </metadata>
  <g
     inkscape:label="Layer 1"
     inkscape:groupmode="layer"
     id="layer1"
     transform="translate(-124.14889,-84.46726)">
    <g
       transform="matrix(0.2852919,0,0,0.27918558,111.40712,-112.8982)"
       style="font-style:normal;font-weight:normal;font-size:75.2293396px;line-height:125%;font-family:sans-serif;letter-spacing:0px;word-spacing:0px;fill:#003399;fill-opacity:1;stroke:none;stroke-width:1px;stroke-linecap:butt;stroke-linejoin:miter;stroke-opacity:1"
       id="text4337-9-26-88" />
    <g
       id="g7529"
       transform="matrix(0.2338801,0,0,0.2338801,118.61285,68.436507)">
      <path
         id="path815"
         transform="scale(0.26458333)"
         d="m 149.64062,291.37891 a 23.345563,23.345563 0 0 0 -23.3457,23.3457 23.345563,23.345563 0 0 0 15.60938,21.99609 c -10.9221,2.48467 -20.1211,10.32536 -20.1211,23.51758 v 25.01367 h 55.71485 l 0.002,-25.11133 c -4e-4,-13.15581 -9.17501,-20.96378 -20.07812,-23.42968 a 23.345563,23.345563 0 0 0 15.56445,-21.98633 23.345563,23.345563 0 0 0 -23.34571,-23.3457 z"
         style="fill:#666666;fill-opacity:1;stroke:none;stroke-width:1.03806114;stroke-linejoin:round;stroke-miterlimit:4;stroke-dasharray:none;stroke-opacity:1"
         inkscape:connector-curvature="0" />
      <path
         id="path815-6"
         transform="scale(0.26458333)"
         d="m 217.14258,291.37891 a 23.345563,23.345563 0 0 0 -23.3457,23.3457 23.345563,23.345563 0 0 0 15.60742,21.99609 c -10.9221,2.48467 -20.11914,10.32536 -20.11914,23.51758 v 25.01367 H 245 l 0.002,-25.11133 c -4e-4,-13.15579 -9.17503,-20.96376 -20.07812,-23.42968 a 23.345563,23.345563 0 0 0 15.56445,-21.98633 23.345563,23.345563 0 0 0 -23.3457,-23.3457 z"
         style="fill:#666666;fill-opacity:1;stroke:none;stroke-width:1.03806114;stroke-linejoin:round;stroke-miterlimit:4;stroke-dasharray:none;stroke-opacity:1"
         inkscape:connector-curvature="0" />
      <path
         id="path815-3"
         transform="scale(0.26458333)"
         d="m 284.64453,291.37891 a 23.345563,23.345563 0 0 0 -23.3457,23.3457 23.345563,23.345563 0 0 0 15.60742,21.99609 c -10.9221,2.48467 -20.12109,10.32536 -20.12109,23.51758 v 25.01367 h 55.71679 l 0.002,-25.11133 c -4.1e-4,-13.15581 -9.17697,-20.96378 -20.08008,-23.42968 a 23.345563,23.345563 0 0 0 15.5664,-21.98633 23.345563,23.345563 0 0 0 -23.3457,-23.3457 z"
         style="fill:#666666;fill-opacity:1;stroke:none;stroke-width:1.03806114;stroke-linejoin:round;stroke-miterlimit:4;stroke-dasharray:none;stroke-opacity:1"
         inkscape:connector-curvature="0" />
      <path
         id="path815-3-2"
         transform="scale(0.26458333)"
         d="m 352.14648,291.37891 a 23.345563,23.345563 0 0 0 -23.3457,23.3457 23.345563,23.345563 0 0 0 15.48438,21.95312 c -11.02351,2.42596 -20.35547,10.27504 -20.35547,23.56055 v 25.01367 h 55.71679 v -25.11133 c -3.9e-4,-13.07281 -9.06068,-20.86156 -19.87304,-23.3789 a 23.345563,23.345563 0 0 0 15.71875,-22.03711 23.345563,23.345563 0 0 0 -23.34571,-23.3457 z"
         style="fill:#666666;fill-opacity:1;stroke:none;stroke-width:1.03806114;stroke-linejoin:round;stroke-miterlimit:4;stroke-dasharray:none;stroke-opacity:1"
         inkscape:connector-curvature="0" />
      <path
         id="path815-3-27"
         transform="scale(0.26458333)"
         d="m 419.64844,291.37891 a 23.345563,23.345563 0 0 0 -23.34571,23.3457 23.345563,23.345563 0 0 0 15.60743,21.99609 c -10.9221,2.48467 -20.1211,10.32536 -20.1211,23.51758 v 25.01367 h 55.7168 v -25.11133 c -4e-4,-13.15581 -9.17501,-20.96378 -20.07813,-23.42968 a 23.345563,23.345563 0 0 0 15.56641,-21.98633 23.345563,23.345563 0 0 0 -23.3457,-23.3457 z"
         style="fill:#666666;fill-opacity:1;stroke:none;stroke-width:1.03806114;stroke-linejoin:round;stroke-miterlimit:4;stroke-dasharray:none;stroke-opacity:1"
         inkscape:connector-curvature="0" />
      <path
         id="path815-9"
         transform="scale(0.26458333)"
         d="m 149.64062,403.25391 a 23.345563,23.345563 0 0 0 -23.3457,23.3457 23.345563,23.345563 0 0 0 15.60938,21.99609 c -10.9221,2.48469 -20.1211,10.32529 -20.1211,23.51758 v 25.01367 h 55.71485 l 0.002,-25.11133 c -4e-4,-13.1558 -9.17502,-20.96378 -20.07812,-23.42968 a 23.345563,23.345563 0 0 0 15.56445,-21.98633 23.345563,23.345563 0 0 0 -23.34571,-23.3457 z"
         style="fill:#666666;fill-opacity:1;stroke:none;stroke-width:1.03806114;stroke-linejoin:round;stroke-miterlimit:4;stroke-dasharray:none;stroke-opacity:1"
         inkscape:connector-curvature="0" />
      <path
         id="path815-6-8"
         transform="scale(0.26458333)"
         d="m 217.14258,403.25391 a 23.345563,23.345563 0 0 0 -23.3457,23.3457 23.345563,23.345563 0 0 0 15.60937,21.99609 c -10.92291,2.48423 -20.12109,10.32454 -20.12109,23.51758 v 25.01367 H 245 l 0.002,-25.11133 c -4e-4,-13.15672 -9.17598,-20.96631 -20.08007,-23.43164 a 23.345563,23.345563 0 0 0 15.5664,-21.98437 23.345563,23.345563 0 0 0 -23.3457,-23.3457 z"
         style="fill:#666666;fill-opacity:1;stroke:none;stroke-width:1.03806114;stroke-linejoin:round;stroke-miterlimit:4;stroke-dasharray:none;stroke-opacity:1"
         inkscape:connector-curvature="0" />
      <path
         id="path815-3-0"
         transform="scale(0.26458333)"
         d="m 284.64453,403.25391 a 23.345563,23.345563 0 0 0 -23.3457,23.3457 23.345563,23.345563 0 0 0 15.60937,21.99609 c -10.92291,2.48423 -20.12304,10.32454 -20.12304,23.51758 v 25.01367 h 55.71679 l 0.002,-25.11133 c -4.1e-4,-13.15582 -9.17697,-20.96379 -20.08008,-23.42968 a 23.345563,23.345563 0 0 0 15.5664,-21.98633 23.345563,23.345563 0 0 0 -23.3457,-23.3457 z"
         style="fill:#666666;fill-opacity:1;stroke:none;stroke-width:1.03806114;stroke-linejoin:round;stroke-miterlimit:4;stroke-dasharray:none;stroke-opacity:1"
         inkscape:connector-curvature="0" />
      <path
         id="path815-6-6"
         transform="scale(0.26458333)"
         d="m 217.14258,515.12891 a 23.345563,23.345563 0 0 0 -23.3457,23.3457 23.345563,23.345563 0 0 0 15.60546,21.99609 c -10.92112,2.48525 -20.11718,10.32619 -20.11718,23.51758 v 25.01367 H 245 l 0.002,-25.11133 c -4e-4,-13.15745 -9.17712,-20.96677 -20.08203,-23.43164 a 23.345563,23.345563 0 0 0 15.56836,-21.98437 23.345563,23.345563 0 0 0 -23.3457,-23.3457 z"
         style="fill:#d0bd2a;fill-opacity:1;stroke:none;stroke-width:1.03806114;stroke-linejoin:round;stroke-miterlimit:4;stroke-dasharray:none;stroke-opacity:1"
         inkscape:connector-curvature="0" />
      <path
         id="path815-3-7"
         transform="scale(0.26458333)"
         d="m 284.64453,515.12891 a 23.345563,23.345563 0 0 0 -23.3457,23.3457 23.345563,23.345563 0 0 0 15.60547,21.99609 c -10.92113,2.48525 -20.11914,10.32619 -20.11914,23.51758 v 25.01367 h 55.71679 l 0.002,-25.11133 c -4.1e-4,-13.15747 -9.17905,-20.96678 -20.08399,-23.43164 a 23.345563,23.345563 0 0 0 15.57031,-21.98437 23.345563,23.345563 0 0 0 -23.3457,-23.3457 z"
         style="fill:#d0bd2b;fill-opacity:0.72941176;stroke:none;stroke-width:1.03806114;stroke-linejoin:round;stroke-miterlimit:4;stroke-dasharray:none;stroke-opacity:1"
         inkscape:connector-curvature="0" />
      <path
         id="path815-3-2-2"
         transform="scale(0.26458333)"
         d="m 352.14648,515.12891 a 23.345563,23.345563 0 0 0 -23.3457,23.3457 23.345563,23.345563 0 0 0 15.60547,21.99609 c -10.92113,2.48525 -20.11914,10.32619 -20.11914,23.51758 v 25.01367 h 55.7168 v -25.11133 c -4e-4,-13.15747 -9.1771,-20.96678 -20.08203,-23.43164 a 23.345563,23.345563 0 0 0 15.57031,-21.98437 23.345563,23.345563 0 0 0 -23.34571,-23.3457 z"
         style="fill:#d0bd2a;fill-opacity:0.47647059;stroke:none;stroke-width:1.03806114;stroke-linejoin:round;stroke-miterlimit:4;stroke-dasharray:none;stroke-opacity:1"
         inkscape:connector-curvature="0" />
      <path
         id="path815-3-27-7"
         transform="scale(0.26458333)"
         d="m 419.64844,515.12891 a 23.345563,23.345563 0 0 0 -23.34571,23.3457 23.345563,23.345563 0 0 0 15.60547,21.99609 c -10.92112,2.48525 -20.11914,10.32619 -20.11914,23.51758 v 25.01367 h 55.7168 v -25.11133 c -4e-4,-13.15747 -9.1771,-20.96678 -20.08203,-23.43164 a 23.345563,23.345563 0 0 0 15.57031,-21.98437 23.345563,23.345563 0 0 0 -23.3457,-23.3457 z"
         style="fill:#d0bd2a;fill-opacity:0.25042019;stroke:none;stroke-width:1.03806114;stroke-linejoin:round;stroke-miterlimit:4;stroke-dasharray:none;stroke-opacity:1"
         inkscape:connector-curvature="0" />
    </g>
    <text
       xml:space="preserve"
       style="font-style:normal;font-weight:normal;font-size:7.9375px;line-height:125%;font-family:sans-serif;letter-spacing:0px;word-spacing:0px;fill:#666666;fill-opacity:1;stroke:none;stroke-width:0.26458332px;stroke-linecap:butt;stroke-linejoin:miter;stroke-opacity:1"
       x="147.97768"
       y="105.36607"
       id="text7515"><tspan
         sodipodi:role="line"
         id="tspan7513"
         x="147.97768"
         y="105.36607"
         style="font-style:normal;font-variant:normal;font-weight:200;font-stretch:normal;font-size:25.39999962px;font-family:Exo;-inkscape-font-specification:'Exo Ultra-Light';fill:#666666;fill-opacity:1;stroke-width:0.26458332px">TIaaS</tspan></text>
  </g>
</svg>
